<?xml version="1.0" standalone="no"?>
<!DOCTYPE svg PUBLIC "-//W3C//DTD SVG 20010904//EN"
 "http://www.w3.org/TR/2001/REC-SVG-20010904/DTD/svg10.dtd">
<svg version="1.0" xmlns="http://www.w3.org/2000/svg"
 width="300.000000pt" height="300.000000pt" viewBox="0 0 300.000000 300.000000"
 preserveAspectRatio="xMidYMid meet">
<metadata>
Created by potrace 1.10, written by Peter Selinger 2001-2011
</metadata>
<g transform="translate(0.000000,300.000000) scale(0.100000,-0.100000)"
fill="currentColor" stroke="none">
<path d="M925 2401 c-218 -8 -225 -16 -225 -246 l0 -145 40 0 40 0 0 124 c0
110 2 126 21 150 20 26 22 26 155 26 l134 0 0 50 c0 28 -3 49 -7 48 -5 -1 -75
-4 -158 -7z m90 -42 c4 -5 -26 -9 -72 -9 -104 0 -142 -12 -175 -57 -26 -34
-28 -35 -28 -12 0 31 25 68 54 79 29 12 214 11 221 -1z"/>
<path d="M1990 2358 l0 -48 124 0 c123 0 125 0 145 -26 19 -24 21 -40 21 -150
l0 -124 40 0 40 0 0 138 c0 113 -4 144 -19 179 -29 62 -54 71 -214 75 l-137 3
0 -47z m295 -19 c13 -13 26 -35 30 -49 6 -24 5 -23 -25 8 -42 44 -67 52 -156
52 -41 0 -74 4 -74 8 0 4 45 7 101 6 92 -1 103 -3 124 -25z"/>
<path d="M1344 2251 c-25 -11 -74 -67 -74 -86 0 -7 -12 -27 -26 -44 -26 -31
-26 -31 -130 -31 -116 0 -149 -10 -183 -59 -20 -28 -21 -41 -21 -391 0 -401 2
-413 64 -451 30 -18 56 -19 563 -17 l533 3 31 31 c16 17 34 48 39 70 14 60 11
692 -3 733 -20 58 -56 76 -155 79 -127 4 -129 5 -156 65 -13 28 -36 63 -50 77
-27 25 -30 25 -219 27 -106 1 -201 -2 -213 -6z m408 -48 c10 -9 31 -40 48 -70
18 -31 41 -58 55 -63 13 -5 64 -12 113 -16 62 -5 96 -12 113 -25 l24 -18 5
-303 c3 -167 2 -337 -1 -377 -6 -69 -9 -77 -39 -103 l-33 -27 -199 0 c-210 0
-225 4 -140 40 192 83 306 343 226 514 -13 27 -20 72 -24 140 l-5 100 -95 3
c-60 1 -107 8 -129 18 -53 25 -176 30 -246 9 -88 -25 -130 -50 -188 -109 -80
-83 -114 -161 -122 -283 -9 -138 94 -335 156 -297 7 4 10 3 6 -3 -14 -22 33
-72 95 -102 l63 -30 -205 0 c-186 -1 -208 1 -237 19 -52 31 -55 57 -51 437 l3
343 27 27 c28 28 27 28 217 32 27 1 44 11 78 46 24 25 43 51 43 59 0 7 9 21
21 32 26 24 91 30 269 26 105 -3 139 -7 152 -19z m-132 -208 c47 -8 127 -15
178 -15 l94 0 -2 -102 c-2 -71 3 -123 15 -168 44 -169 -45 -349 -213 -432 -62
-31 -74 -33 -167 -33 -89 0 -107 3 -162 29 -35 16 -63 30 -63 32 0 1 19 39 41
84 56 110 137 217 266 351 59 62 101 109 93 104 -106 -60 -295 -227 -286 -252
3 -8 2 -11 -4 -8 -18 11 -150 -190 -150 -232 -1 -28 -37 19 -74 97 -29 60 -31
73 -31 170 0 99 2 110 33 172 53 108 158 189 269 208 70 11 70 11 163 -5z"/>
<path d="M1590 1951 c-155 -42 -268 -129 -322 -248 -25 -56 -30 -81 -32 -153
-2 -88 15 -169 27 -135 4 9 7 60 7 114 0 113 14 164 66 234 45 62 129 116 238
152 48 16 92 35 98 42 14 17 1 16 -82 -6z"/>
<path d="M1855 1766 c-5 -6 -19 -38 -29 -71 -11 -33 -28 -72 -38 -87 -10 -14
-18 -29 -18 -33 0 -3 -18 -26 -41 -50 -71 -75 -185 -124 -348 -149 -18 -2 -39
-10 -45 -17 -19 -20 141 -2 215 25 90 32 117 47 170 95 59 51 101 118 129 200
22 65 24 110 5 87z"/>
<path d="M700 1143 c0 -161 7 -185 64 -219 26 -16 56 -20 179 -22 l147 -4 0
46 0 46 -134 0 c-133 0 -135 0 -155 26 -19 24 -21 40 -21 150 l0 123 -40 -1
-40 0 0 -145z m63 -138 c7 -6 21 -20 31 -33 26 -30 2 -29 -29 3 -19 18 -25 34
-24 62 2 34 2 35 6 8 2 -16 10 -35 16 -40z"/>
<path d="M2280 1166 c0 -110 -2 -126 -21 -150 -20 -26 -22 -26 -145 -26 l-124
0 0 -46 0 -46 138 4 c150 3 174 11 209 65 15 22 19 54 21 175 l4 148 -41 0
-41 0 0 -124z m9 -197 c-21 -18 -39 -25 -39 -15 0 3 12 17 28 33 18 18 28 24
30 15 2 -7 -6 -22 -19 -33z"/>
<path d="M2007 724 c-4 -4 -7 -32 -7 -63 0 -43 -3 -52 -12 -43 -15 15 -72 16
-99 2 -63 -34 -63 -176 0 -210 29 -15 77 -12 95 5 8 8 17 15 20 15 3 0 6 -7 6
-15 0 -9 9 -15 23 -15 22 0 22 0 21 162 -2 152 -3 163 -21 166 -10 2 -22 0
-26 -4z m-25 -151 c38 -34 12 -133 -35 -133 -37 0 -67 73 -46 112 22 42 50 49
81 21z"/>
<path d="M570 560 l0 -160 32 0 31 0 -7 115 c-4 75 -3 115 4 115 5 0 10 -4 10
-9 0 -6 14 -48 31 -95 26 -74 34 -86 54 -86 30 0 37 10 71 105 33 92 38 83 32
-52 l-4 -93 28 0 28 0 0 160 0 160 -33 0 c-31 0 -33 -3 -62 -77 -16 -43 -33
-90 -38 -105 -8 -28 -27 -39 -27 -16 0 7 -17 54 -37 105 l-36 93 -39 0 -38 0
0 -160z"/>
<path d="M1223 701 c-18 -11 -40 -35 -50 -53 -24 -45 -24 -145 0 -181 43 -65
132 -85 207 -47 l40 20 0 68 0 67 -60 0 c-56 1 -60 -1 -60 -22 0 -20 5 -23 35
-23 32 0 35 -3 35 -28 0 -39 -17 -52 -66 -52 -59 0 -94 41 -94 110 0 92 75
143 147 100 35 -21 38 -21 50 -4 37 51 -115 88 -184 45z"/>
<path d="M1774 619 c-21 -23 -34 -25 -34 -4 0 9 -9 15 -22 15 -23 0 -23 -2
-23 -115 l0 -115 28 0 c27 0 27 0 27 71 0 82 11 109 45 109 20 0 25 5 25 24 0
32 -24 40 -46 15z"/>
<path d="M915 613 c4 -10 20 -54 37 -97 16 -43 33 -88 39 -98 13 -25 -13 -68
-41 -68 -13 0 -20 -7 -20 -20 0 -15 7 -20 29 -20 52 0 77 35 126 175 25 71 45
133 45 137 0 4 -11 8 -24 8 -20 0 -26 -9 -45 -72 -12 -40 -25 -80 -28 -88 -3
-8 -19 24 -36 73 -29 83 -32 87 -60 87 -24 0 -28 -3 -22 -17z"/>
<path d="M1498 619 c-10 -5 -18 -21 -18 -34 0 -24 1 -24 28 -8 35 20 82 11 82
-16 0 -14 -10 -19 -45 -24 -55 -6 -85 -30 -85 -69 0 -57 68 -88 118 -52 20 14
22 14 22 0 0 -9 9 -16 20 -16 19 0 20 7 20 93 0 80 -3 96 -20 115 -23 24 -90
30 -122 11z m90 -136 c-3 -32 -50 -55 -69 -36 -15 15 -2 51 19 56 44 12 53 8
50 -20z"/>
<path d="M2129 601 c-24 -25 -29 -37 -29 -81 0 -62 11 -85 50 -105 49 -25 140
-12 140 21 0 21 -14 24 -53 12 -30 -9 -40 -8 -61 6 -15 9 -26 23 -26 31 0 12
16 15 76 15 l77 0 -6 41 c-8 59 -40 89 -95 89 -35 0 -49 -6 -73 -29z m109 -23
c27 -27 14 -43 -38 -43 -53 0 -63 11 -34 39 18 19 55 21 72 4z"/>
<path d="M2334 614 c3 -9 6 -60 6 -115 0 -99 0 -99 25 -99 25 0 25 1 25 79 0
84 14 115 48 109 30 -6 43 -49 38 -120 l-5 -68 31 0 30 0 -4 94 c-2 75 -7 98
-22 115 -23 25 -72 28 -104 5 -20 -14 -22 -14 -22 0 0 11 -9 16 -26 16 -20 0
-25 -4 -20 -16z"/>
</g>
</svg>
